<?xml version="1.0" standalone="no"?>
<!DOCTYPE svg PUBLIC "-//W3C//DTD SVG 20010904//EN"
 "http://www.w3.org/TR/2001/REC-SVG-20010904/DTD/svg10.dtd">
<svg version="1.0" xmlns="http://www.w3.org/2000/svg"
 width="700.000000pt" height="700.000000pt" viewBox="0 0 700.000000 700.000000"
 preserveAspectRatio="xMidYMid meet">
<metadata>
Created by potrace 1.14, written by Peter Selinger 2001-2017
</metadata>
<g transform="translate(0.000000,700.000000) scale(0.100000,-0.100000)"
fill="#000000" stroke="none">
<path d="M1128 6415 c-2 -2 -28 -5 -58 -8 -201 -21 -394 -194 -466 -417 -17
-52 -18 -189 -19 -2465 -1 -1923 1 -2423 11 -2473 44 -213 202 -383 419 -448
57 -18 171 -19 2490 -19 l2430 1 78 27 c189 66 321 203 383 397 16 51 17 149
19 1443 l1 1388 -21 54 c-50 122 -148 188 -278 186 -106 -1 -200 -63 -255
-166 l-27 -50 -1 -1343 c0 -738 -4 -1345 -7 -1349 -11 -10 -4648 -9 -4655 1
-9 16 -8 4647 2 4654 5 3 808 6 1785 6 1668 1 1778 2 1815 19 114 51 181 152
180 272 0 120 -57 210 -163 262 l-56 28 -1802 1 c-992 0 -1804 0 -1805 -1z"/>
<path d="M6085 5830 c-101 -15 -72 11 -1358 -1274 l-1227 -1227 -497 497
c-401 400 -508 502 -548 520 -133 61 -288 16 -368 -107 -27 -41 -46 -120 -43
-176 6 -109 7 -109 673 -775 682 -681 656 -659 783 -661 129 -1 35 -88 1526
1405 1475 1476 1385 1379 1387 1500 2 81 -20 142 -71 199 -25 28 -61 58 -81
69 -48 24 -126 37 -176 30z"/>
</g>
</svg>
